HIERARCHY
ROOT Hips
{
  OFFSET 0.000000 0.000000 0.000000
  CHANNELS 6 Xposition Yposition Zposition Zrotation Xrotation Yrotation
  JOINT RightUpLeg
  {
    OFFSET -6.216810 -9.097773 -0.230489
    CHANNELS 3 Zrotation Xrotation Yrotation
    JOINT RightLeg
    {
      OFFSET -14.997058 -35.907978 -3.166242
      CHANNELS 3 Zrotation Xrotation Yrotation
      JOINT RightFoot
      {
        OFFSET -6.766161 -32.825645 -27.262211
        CHANNELS 3 Zrotation Xrotation Yrotation
        JOINT RightToeBase
        {
          OFFSET -8.247897 -7.582372 9.175840
          CHANNELS 3 Zrotation Xrotation Yrotation
          End Site
          {
            OFFSET 0.000000 4.000000 0.000000
          }
        }
      }
    }
  }
  JOINT LeftUpLeg
  {
    OFFSET 6.141799 -8.479423 -0.410884
    CHANNELS 3 Zrotation Xrotation Yrotation
    JOINT LeftLeg
    {
      OFFSET 15.930682 -33.454235 12.724304
      CHANNELS 3 Zrotation Xrotation Yrotation
      JOINT LeftFoot
      {
        OFFSET 5.352481 -43.404800 2.619547
        CHANNELS 3 Zrotation Xrotation Yrotation
        JOINT LeftToeBase
        {
          OFFSET 8.343542 -2.230278 11.441862
          CHANNELS 3 Zrotation Xrotation Yrotation
          End Site
          {
            OFFSET 0.000000 4.000000 0.000000
          }
        }
      }
    }
  }
  JOINT Spine
  {
    OFFSET -0.172652 12.507564 -3.439741
    CHANNELS 3 Zrotation Xrotation Yrotation
    JOINT Spine1
    {
      OFFSET -0.045004 14.473534 2.780763
      CHANNELS 3 Zrotation Xrotation Yrotation
      JOINT Spine2
      {
        OFFSET 0.044821 4.327488 3.719895
        CHANNELS 3 Zrotation Xrotation Yrotation
        JOINT Neck
        {
          OFFSET -1.227592 21.598566 -0.320694
          CHANNELS 3 Zrotation Xrotation Yrotation
          JOINT Head
          {
            OFFSET -1.159585 5.167532 7.978178
            CHANNELS 3 Zrotation Xrotation Yrotation
            End Site
            {
              OFFSET 0.000000 4.000000 0.000000
            }
          }
        }
        JOINT RightShoulder
        {
          OFFSET -8.314901 11.360037 -0.850531
          CHANNELS 3 Zrotation Xrotation Yrotation
          JOINT RightArm
          {
            OFFSET -11.893396 -2.860069 2.128282
            CHANNELS 3 Zrotation Xrotation Yrotation
            JOINT RightForeArm
            {
              OFFSET -3.049576 -24.689257 4.139619
              CHANNELS 3 Zrotation Xrotation Yrotation
              JOINT RightHand
              {
                OFFSET 17.123085 -12.482464 17.030766
                CHANNELS 3 Zrotation Xrotation Yrotation
                End Site
                {
                  OFFSET 0.000000 4.000000 0.000000
                }
              }
            }
          }
        }
        JOINT LeftShoulder
        {
          OFFSET 6.441113 12.029802 -1.809842
          CHANNELS 3 Zrotation Xrotation Yrotation
          JOINT LeftArm
          {
            OFFSET 13.394785 -0.864720 0.309316
            CHANNELS 3 Zrotation Xrotation Yrotation
            JOINT LeftForeArm
            {
              OFFSET 8.888775 -23.608517 0.580557
              CHANNELS 3 Zrotation Xrotation Yrotation
              JOINT LeftHand
              {
                OFFSET -4.552157 -12.490993 19.046724
                CHANNELS 3 Zrotation Xrotation Yrotation
                End Site
                {
                  OFFSET 0.000000 4.000000 0.000000
                }
              }
            }
          }
        }
      }
    }
  }
}
MOTION
Frames: 8
Frame Time: 0.050000
-79.092964 4.711443 -42.908253 -7.474022 -0.043362 -2.063225 8.929487 -11.883237 7.294397 9.808748 -14.078376 -11.159211 -15.389284 16.240737 15.629280 1.765103 7.147614 -6.338521 -14.865435 7.560337 -1.483681 9.170633 7.740814 7.692064 3.914363 -6.821785 -24.665018 10.598972 -4.592673 23.966924 16.908437 3.537489 -0.096217 4.115870 -5.712740 -9.192508 -10.820575 1.221401 11.860919 6.101219 -8.778806 -16.927631 -11.264274 5.214857 18.101329 1.773252 4.768318 -22.748164 -0.669042 -7.537840 22.975369 -6.167920 -6.157185 -17.042983 2.410807 8.756462 16.268415 -3.873747 -2.296064 -32.059661 0.174201 -9.852559 27.882553 -10.794013 19.318373 -20.102997 17.513428 -2.056060 28.225089
-79.716469 4.717875 -43.073811 -7.308442 0.010564 -2.013444 7.960880 -11.778358 7.139652 9.177067 -14.028431 -9.729340 -14.246094 16.067348 13.585793 2.532909 7.522678 -5.902417 -14.671574 7.580133 -1.370591 9.038053 7.534051 7.462738 3.872933 -6.936057 -24.276483 10.353373 -4.503772 23.555543 16.561194 3.292279 -0.070860 4.218524 -5.404730 -9.198958 -10.545803 1.339792 11.786148 5.973109 -8.909652 -17.032195 -11.341648 5.110486 18.212054 1.809715 4.494821 -22.337789 -1.061588 -7.069127 22.482984 -5.496320 -7.539129 -16.866721 1.408213 9.393114 16.161195 -3.714150 -2.594697 -31.959702 -0.004251 -9.956938 27.754254 -12.240410 18.135341 -21.007508 18.171877 -0.114078 29.050081
-80.465843 4.772091 -43.248680 -7.533849 0.380515 -2.048104 7.042805 -10.971405 6.671712 8.138109 -14.901685 -6.971262 -10.260515 17.251470 11.122655 1.509222 7.087044 -6.565423 -13.909338 6.898338 -1.481090 8.604660 8.233430 7.507163 3.609969 -6.935720 -23.623435 10.565619 -4.941355 22.864534 16.273819 2.241975 0.234514 4.525459 -4.144864 -9.279504 -9.781425 0.596032 11.552523 5.664592 -9.196206 -17.501788 -11.687690 5.577192 18.772123 1.180711 4.715394 -21.652339 -1.521984 -7.972112 21.709687 -5.430692 -5.526122 -16.697437 2.573414 8.498425 16.033065 -3.662056 -2.328593 -30.977060 -1.031507 -9.665569 26.999237 -12.093811 17.257238 -21.444729 18.169711 0.260804 28.998078
-81.594604 4.565578 -43.556694 -7.284523 0.225123 -1.991228 6.494254 -10.289473 6.355508 7.007030 -15.328238 -5.266382 -7.764762 16.842437 10.366084 1.266263 7.869476 -7.866489 -13.258179 6.418965 -1.642112 8.466837 9.017261 7.508905 3.049772 -7.622661 -24.206010 10.135338 -4.413660 23.217850 15.950368 2.150181 0.169751 4.416723 -3.577676 -9.203303 -9.344273 0.221328 11.365666 5.702146 -9.140089 -17.887444 -11.954401 5.486624 19.172760 0.780476 4.506605 -19.903398 -1.008263 -8.698994 20.266451 -3.662761 -5.428969 -15.225997 0.543147 9.095898 14.621683 -3.497596 -2.296941 -30.727840 -1.195272 -10.088693 26.632570 -13.851100 15.707667 -22.409483 18.895876 3.015769 29.860624
-83.181534 4.411846 -44.027252 -6.838111 0.085035 -1.878314 6.763769 -9.031329 5.758261 5.600996 -16.690241 -3.680244 -5.625756 16.558291 10.972900 0.642562 8.854599 -9.887749 -12.732653 6.095005 -1.710127 8.537870 9.411915 7.326705 2.085313 -7.659078 -24.802639 10.043710 -4.194670 23.613569 15.630269 2.107759 0.009293 4.142734 -3.151046 -9.098578 -8.985154 -0.297812 11.208161 5.346666 -9.017962 -17.605472 -11.751787 5.794298 18.883977 0.289909 4.541257 -18.514734 -0.097988 -9.185047 19.242846 -2.456454 -5.032841 -13.742200 -1.051396 9.373915 13.121761 -3.148963 -2.069812 -29.874679 -1.417866 -10.101980 25.820690 -15.616080 13.684042 -23.217901 19.306507 5.680707 30.220123
-85.163948 4.299009 -44.660732 -6.467838 -0.204510 -1.795380 7.412550 -7.991281 5.317623 4.885914 -17.764081 -3.224399 -4.892906 16.362393 12.580896 0.071108 9.647325 -11.595219 -11.875102 5.802717 -1.689463 8.523376 9.687678 7.025838 0.950005 -7.328989 -24.985346 10.008224 -4.155428 23.631865 15.399818 2.248539 -0.167174 3.756077 -2.945086 -8.892655 -8.650396 -0.412742 10.991394 4.989316 -9.029887 -17.195387 -11.464314 6.077339 18.466131 -0.083899 4.382989 -17.207208 0.952584 -9.594174 18.345922 -1.384888 -5.171089 -12.720861 -2.915753 10.141566 12.073392 -3.014054 -1.947368 -28.865163 -1.466196 -9.894495 24.888726 -17.464403 11.044389 -24.114947 19.610609 8.772344 30.337062
-87.437180 4.227072 -45.445461 -6.117086 -0.475259 -1.715013 8.165268 -7.206728 4.964577 4.691143 -18.828460 -3.405475 -5.655899 15.747955 14.824356 0.282108 10.832074 -12.977962 -10.898439 5.225834 -1.812987 8.479614 10.139774 6.796895 -0.259876 -6.852446 -24.903323 9.967285 -4.192037 23.407679 15.371266 2.305705 -0.368705 3.359501 -2.433333 -8.821890 -8.487042 -0.772082 10.902633 4.737369 -8.923815 -16.827709 -11.197799 6.169586 18.068370 -0.595538 4.134480 -15.747458 2.186844 -10.334406 17.364678 0.443096 -5.693645 -11.666216 -5.617848 11.570896 11.074171 -2.946958 -1.863191 -28.126585 -1.204836 -9.940674 24.114588 -19.774826 8.508986 -25.192669 20.097872 12.304224 30.723288
-89.895981 4.101080 -46.348709 -5.660728 -0.853728 -1.609728 9.135948 -6.643980 4.694023 4.560552 -19.746763 -4.037522 -7.451288 14.900497 17.340798 1.069919 12.170190 -13.995040 -9.870271 4.411235 -2.098034 8.322649 10.919004 6.657808 -1.526519 -6.223439 -23.868175 9.890498 -4.503866 22.265825 15.215648 2.688884 -0.633553 2.782490 -2.267684 -8.543602 -8.168324 -0.861842 10.653009 4.417185 -8.809986 -16.288738 -10.807393 6.208597 17.479700 -1.244475 3.702705 -13.994414 3.659851 -10.882153 16.129118 2.690605 -6.893523 -10.469064 -9.029960 13.549614 10.120629 -2.808473 -1.880459 -27.181416 -1.244046 -10.077823 23.118785 -22.260074 5.582482 -26.650252 20.670253 16.432849 31.192017
